<svg xmlns="http://www.w3.org/2000/svg" viewBox="0 0 478.4 478.4">
  <path d="M462.9 224L248.4 438.5c-53.2 53.2-139.8 53.2-193 0-53.2-53.2-53.2-139.8 0-193L269.9 31.1c41.4-41.4 108.7-41.4 150.1 0 41.4 41.4 41.4 108.7 0 150.1L248.8 352.3c-14.3 14.5-33.3 22.5-53.7 22.6-40.7.2-76.3-35.4-76.1-76.1.1-20.3 8.1-39.4 22.6-53.7L312.7 73.9l21.4 21.4-171.5 171.6c-8.5 8.6-13.3 19.9-13.3 32-.1 24.4 21.2 45.8 45.7 45.7 12.1 0 23.5-4.8 32-13.3l171.6-171.5c29.6-29.6 29.6-77.6 0-107.2C369 23 320.9 23 291.4 52.6L76.9 266.9c-41.4 41.4-41.4 108.7 0 150.1 41.4 41.4 108.7 41.4 150.1 0l214.5-214.4 21.4 21.4z"/>
</svg>
